<?xml version="1.0" encoding="utf-8"?>
<!-- Generator: Adobe Illustrator 27.0.0, SVG Export Plug-In . SVG Version: 6.00 Build 0)  -->
<svg version="1.1" id="logo" xmlns="http://www.w3.org/2000/svg" xmlns:xlink="http://www.w3.org/1999/xlink" x="0px" y="0px"
	 viewBox="0 0 32 32" style="enable-background:new 0 0 32 32;" xml:space="preserve">
<style type="text/css">
	.st0{fill:#EABF0D;}
	.st1{fill:#FFFFFF;}
</style>
<g>
	<path class="st0" d="M16,0.8c3.2,0,6.4,1.4,8.7,3.6c2.3,2.5,3.7,5.3,3.7,8.7s-1.4,7-3.7,9.3L16,31.2l-8.7-8.7
		c-2.3-2.3-3.7-5.6-3.7-9.3c0-3.4,1.2-6.2,3.7-8.7C9.6,2.2,12.8,0.8,16,0.8z"/>
	<path class="st1" d="M9.2,24.4l6.7,6.8l6.8-6.8c-0.9-1.6-2.5-3-4.3-3.6v-3.5h1.2v-0.9h-2.8l-0.3-12c-0.2,0-0.4-0.1-0.7-0.1
		c-0.1,0-0.3,0-0.4,0l-0.4,12.1h-2.7v0.9h1.2v3.5C11.7,21.4,10.1,22.7,9.2,24.4z"/>
</g>
</svg>
